<?xml version="1.0" encoding="UTF-8" standalone="no"?>
<!DOCTYPE svg PUBLIC "-//W3C//DTD SVG 1.1//EN"
 "http://www.w3.org/Graphics/SVG/1.1/DTD/svg11.dtd">
<!-- Generated by graphviz version 2.28.0 (20110509.1545)
 -->
<!-- Title: diagram Pages: 1 -->
<svg width="894pt" height="188pt"
 viewBox="0.00 0.00 894.00 188.00" xmlns="http://www.w3.org/2000/svg" xmlns:xlink="http://www.w3.org/1999/xlink">
<g id="graph1" class="graph" transform="scale(1 1) rotate(0) translate(4 184)">
<title>diagram</title>
<polygon fill="white" stroke="white" points="-4,5 -4,-184 891,-184 891,5 -4,5"/>
<!-- OBJECT -->
<g id="node1" class="node"><title>OBJECT</title>
<ellipse fill="burlywood" stroke="black" cx="46" cy="-162" rx="46.173" ry="18"/>
<text text-anchor="middle" x="46" y="-156.4" font-family="Times,serif" font-size="14.00">OBJECT</text>
</g>
<!-- TYPE -->
<g id="node3" class="node"><title>TYPE</title>
<ellipse fill="darkorange" stroke="black" cx="196" cy="-90" rx="35.2688" ry="18"/>
<text text-anchor="middle" x="196" y="-84.4" font-family="Times,serif" font-size="14.00">TYPE</text>
</g>
<!-- OBJECT&#45;&gt;TYPE -->
<g id="edge2" class="edge"><title>OBJECT&#45;&gt;TYPE</title>
<path fill="none" stroke="black" d="M74.5669,-147.669C99.3982,-136.081 135.425,-119.268 161.788,-106.965"/>
<polygon fill="black" stroke="black" points="163.444,-110.055 171.025,-102.655 160.483,-103.712 163.444,-110.055"/>
</g>
<!-- KEYWORD -->
<g id="node9" class="node"><title>KEYWORD</title>
<ellipse fill="darkorange" stroke="black" cx="304" cy="-18" rx="60.0809" ry="18"/>
<text text-anchor="middle" x="304" y="-12.4" font-family="Times,serif" font-size="14.00">KEYWORD</text>
</g>
<!-- TYPE&#45;&gt;KEYWORD -->
<g id="edge16" class="edge"><title>TYPE&#45;&gt;KEYWORD</title>
<path fill="none" stroke="black" d="M216.823,-75.5033C232.17,-65.5568 253.352,-51.8274 270.994,-40.393"/>
<polygon fill="black" stroke="black" points="273.359,-43.0309 279.847,-34.6549 269.552,-37.1569 273.359,-43.0309"/>
</g>
<!-- RunParser -->
<g id="node4" class="node"><title>RunParser</title>
<ellipse fill="cadetblue" stroke="black" cx="553" cy="-90" rx="50.9029" ry="18"/>
<text text-anchor="middle" x="553" y="-84.4" font-family="Times,serif" font-size="14.00">RunParser</text>
</g>
<!-- TRAIT -->
<g id="node5" class="node"><title>TRAIT</title>
<ellipse fill="burlywood" stroke="black" cx="150" cy="-162" rx="39.1979" ry="18"/>
<text text-anchor="middle" x="150" y="-156.4" font-family="Times,serif" font-size="14.00">TRAIT</text>
</g>
<!-- TRAIT&#45;&gt;TYPE -->
<g id="edge4" class="edge"><title>TRAIT&#45;&gt;TYPE</title>
<path fill="none" stroke="black" d="M160.901,-144.411C166.458,-135.955 173.332,-125.494 179.52,-116.078"/>
<polygon fill="black" stroke="black" points="182.61,-117.749 185.177,-107.47 176.76,-113.905 182.61,-117.749"/>
</g>
<!-- IGNORED -->
<g id="node7" class="node"><title>IGNORED</title>
<ellipse fill="gold" stroke="black" cx="304" cy="-90" rx="54.2321" ry="18"/>
<text text-anchor="middle" x="304" y="-84.4" font-family="Times,serif" font-size="14.00">IGNORED</text>
</g>
<!-- IGNORED&#45;&gt;KEYWORD -->
<g id="edge6" class="edge"><title>IGNORED&#45;&gt;KEYWORD</title>
<path fill="none" stroke="black" d="M304,-71.6966C304,-63.9827 304,-54.7125 304,-46.1124"/>
<polygon fill="black" stroke="black" points="307.5,-46.1043 304,-36.1043 300.5,-46.1044 307.5,-46.1043"/>
</g>
<!-- CASE -->
<g id="node10" class="node"><title>CASE</title>
<ellipse fill="burlywood" stroke="black" cx="243" cy="-162" rx="35.5808" ry="18"/>
<text text-anchor="middle" x="243" y="-156.4" font-family="Times,serif" font-size="14.00">CASE</text>
</g>
<!-- CASE&#45;&gt;TYPE -->
<g id="edge8" class="edge"><title>CASE&#45;&gt;TYPE</title>
<path fill="none" stroke="black" d="M232.099,-144.765C226.286,-136.106 219.012,-125.273 212.52,-115.604"/>
<polygon fill="black" stroke="black" points="215.322,-113.499 206.842,-107.147 209.51,-117.401 215.322,-113.499"/>
</g>
<!-- RELATED -->
<g id="node12" class="node"><title>RELATED</title>
<ellipse fill="burlywood" stroke="black" cx="430" cy="-90" rx="53.4262" ry="18"/>
<text text-anchor="middle" x="430" y="-84.4" font-family="Times,serif" font-size="14.00">RELATED</text>
</g>
<!-- RELATED&#45;&gt;KEYWORD -->
<g id="edge10" class="edge"><title>RELATED&#45;&gt;KEYWORD</title>
<path fill="none" stroke="black" d="M403.586,-74.3257C385.188,-64.1046 360.42,-50.3442 340.187,-39.1038"/>
<polygon fill="black" stroke="black" points="341.691,-35.9354 331.249,-34.1384 338.291,-42.0545 341.691,-35.9354"/>
</g>
<!-- Config -->
<g id="node14" class="node"><title>Config</title>
<ellipse fill="gold" stroke="black" cx="827" cy="-162" rx="37.0021" ry="18"/>
<text text-anchor="middle" x="827" y="-156.4" font-family="Times,serif" font-size="14.00">Config</text>
</g>
<!-- ScallopConf -->
<g id="node16" class="node"><title>ScallopConf</title>
<ellipse fill="none" stroke="black" cx="827" cy="-90" rx="58.9758" ry="18"/>
<text text-anchor="middle" x="827" y="-84.4" font-family="Times,serif" font-size="14.00">ScallopConf</text>
</g>
<!-- Config&#45;&gt;ScallopConf -->
<g id="edge12" class="edge"><title>Config&#45;&gt;ScallopConf</title>
<path fill="none" stroke="black" d="M827,-143.697C827,-135.983 827,-126.712 827,-118.112"/>
<polygon fill="black" stroke="black" points="830.5,-118.104 827,-108.104 823.5,-118.104 830.5,-118.104"/>
</g>
<!-- CLASS -->
<g id="node17" class="node"><title>CLASS</title>
<ellipse fill="burlywood" stroke="black" cx="338" cy="-162" rx="41.1379" ry="18"/>
<text text-anchor="middle" x="338" y="-156.4" font-family="Times,serif" font-size="14.00">CLASS</text>
</g>
<!-- CLASS&#45;&gt;TYPE -->
<g id="edge14" class="edge"><title>CLASS&#45;&gt;TYPE</title>
<path fill="none" stroke="black" d="M311.624,-147.998C288.439,-136.568 254.577,-119.876 229.485,-107.507"/>
<polygon fill="black" stroke="black" points="230.856,-104.28 220.339,-102.998 227.761,-110.559 230.856,-104.28"/>
</g>
<!-- ScalaSourceParser -->
<g id="node20" class="node"><title>ScalaSourceParser</title>
<ellipse fill="gold" stroke="black" cx="619" cy="-162" rx="82.3473" ry="18"/>
<text text-anchor="middle" x="619" y="-156.4" font-family="Times,serif" font-size="14.00">ScalaSourceParser</text>
</g>
<!-- ScalaSourceParser&#45;&gt;RunParser -->
<g id="edge20" class="edge"><title>ScalaSourceParser&#45;&gt;RunParser</title>
<path fill="none" stroke="black" d="M603.023,-144.055C594.715,-135.243 584.424,-124.328 575.34,-114.694"/>
<polygon fill="black" stroke="black" points="577.782,-112.182 568.375,-107.307 572.689,-116.984 577.782,-112.182"/>
</g>
<!-- RegexParsers -->
<g id="node22" class="node"><title>RegexParsers</title>
<ellipse fill="none" stroke="black" cx="686" cy="-90" rx="63.3967" ry="18"/>
<text text-anchor="middle" x="686" y="-84.4" font-family="Times,serif" font-size="14.00">RegexParsers</text>
</g>
<!-- ScalaSourceParser&#45;&gt;RegexParsers -->
<g id="edge18" class="edge"><title>ScalaSourceParser&#45;&gt;RegexParsers</title>
<path fill="none" stroke="black" d="M635.219,-144.055C643.531,-135.371 653.798,-124.644 662.92,-115.114"/>
<polygon fill="black" stroke="black" points="665.544,-117.433 669.931,-107.789 660.487,-112.593 665.544,-117.433"/>
</g>
</g>
</svg>
